PathFileType	3	(X/Y/Z)	E:\ViconData\BIOM9541 2025\Week 7\Wed1100\Hanif  deep squat 2-5 Squat 01.trc
DataRate	CameraRate	NumFrames	NumMarkers	Units	OrigDataRate	OrigDataStartFrame	OrigNumFrames
200.0	200.0	15	19	mm	200.0	168	1338	
Frame#	Time	C7			CLAV			RBAK			LASI			RASI			LPSI			RPSI			LTHI			LKNE			LTIB			LANK			LHEE			LTOE			RTHI			RKNE			RTIB			RANK			RHEE			RTOE			
		X1	Y1	Z1	X2	Y2	Z2	X3	Y3	Z3	X4	Y4	Z4	X5	Y5	Z5	X6	Y6	Z6	X7	Y7	Z7	X8	Y8	Z8	X9	Y9	Z9	X10	Y10	Z10	X11	Y11	Z11	X12	Y12	Z12	X13	Y13	Z13	X14	Y14	Z14	X15	Y15	Z15	X16	Y16	Z16	X17	Y17	Z17	X18	Y18	Z18	X19	Y19	Z19	
168	0.835	280.96219	899.62231	-1202.3907	137.81142	805.92944	-1196.7124	305.35492	823.91266	-1352.3933	291.3945	470.19229	-1075.8693	277.15436	493.93353	-1336.3551	455.16092	540.83539	-1160.0511	453.49756	540.22278	-1233.3326	196.94273	420.2746	-911.94769	95.027229	348.04382	-858.18359	206.17638	178.8054	-901.26685	299.8624	65.4086	-968.53229	319.42163	55.349842	-1027.9447	163.41031	38.993603	-932.22986	325.08487	473.01877	-1415.4984	96.957573	336.40277	-1544.9144	132.77237	263.10669	-1536.8752	287.31335	70.470856	-1435.1802	309.96976	54.281338	-1359.947	163.86633	40.132397	-1474.1044
169	0.84	280.80139	895.20856	-1202.3551	137.68959	801.35925	-1196.5347	305.18967	819.46893	-1352.3933	291.81668	467.35629	-1075.9919	277.42496	490.21851	-1336.277	455.5148	536.50336	-1159.7472	453.88516	535.93494	-1233.1344	197.54787	419.02646	-912.25873	95.084427	347.93353	-858.14014	206.11617	178.69987	-901.3324	299.92029	65.97683	-968.21735	319.41412	55.331596	-1028.027	163.39342	38.972977	-932.29419	325.66553	470.23538	-1414.9963	96.512978	336.13461	-1544.8132	132.37062	262.93756	-1536.7439	287.23138	70.515961	-1435.1267	309.96704	54.28503	-1359.9104	163.85649	40.074394	-1474.0428
170	0.845	280.60242	890.80579	-1202.2103	137.57568	796.86151	-1196.4187	305.0264	815.10229	-1352.3071	291.30133	464.05377	-1074.2604	277.65106	486.56595	-1336.0645	455.84067	532.2677	-1159.4558	454.1611	531.68616	-1232.9058	198.21474	417.86356	-912.44397	95.209595	347.79794	-858.11053	206.06207	178.61986	-901.35571	299.8714	65.969505	-968.21356	319.48923	55.460979	-1028.1938	163.38992	38.967133	-932.24585	326.0914	467.70572	-1414.6034	96.072678	335.97568	-1544.7007	131.95705	262.86145	-1536.5797	287.14038	70.612228	-1435.0295	310.00192	54.20219	-1359.91	163.8701	40.088203	-1473.9824
171	0.85	280.45526	886.53674	-1202.1677	137.4418	792.36566	-1196.2732	304.92175	810.90851	-1352.1951	294.60928	458.52066	-1076.344	277.82791	482.9953	-1335.9095	456.09854	528.06555	-1159.0153	454.37036	527.24255	-1232.6952	198.8535	416.59305	-912.67792	95.352448	347.70859	-858.03162	206.00432	178.56064	-901.33234	299.85291	65.951637	-968.24786	319.53714	55.574722	-1028.2981	163.36449	39.006573	-932.22247	326.58905	465.09573	-1414.1064	95.746231	335.79691	-1544.621	131.60173	262.82294	-1536.384	287.05692	70.744888	-1434.9376	309.83908	53.921974	-1360.1608	163.85233	40.139874	-1473.965
172	0.855	280.32678	882.33459	-1202.1348	137.27519	788.08765	-1196.2559	304.76437	806.54865	-1352.1207	293.27682	456.61139	-1076.1603	278.05344	479.33591	-1335.6707	456.41748	523.8056	-1158.8934	454.6774	522.94977	-1232.6005	199.50356	415.42471	-912.93219	95.518051	347.66049	-857.90582	205.98477	178.55292	-901.29498	299.87769	65.872513	-968.35944	319.57632	55.547127	-1028.3635	163.39178	39.001438	-932.25177	327.1561	462.33994	-1413.4496	95.440727	335.52145	-1544.5229	131.28757	262.73129	-1536.2512	287.02509	70.764397	-1434.8726	309.79654	53.912521	-1360.0763	163.84206	40.095337	-1473.9178
173	0.86	280.19809	878.20758	-1202.0728	137.21721	783.83112	-1196.4373	304.76456	802.39062	-1352.0416	293.54758	453.63858	-1076.2574	278.21802	475.78384	-1335.4762	456.76624	519.62115	-1159.155	455.07336	519.00555	-1232.5233	200.24657	414.37714	-913.15106	95.770515	347.70743	-857.78522	205.98195	178.5706	-901.23358	300.24197	65.542068	-968.77747	319.43744	55.314644	-1028.2512	163.41028	38.96542	-932.33722	327.57272	459.84012	-1413.0179	95.166649	335.17877	-1544.397	131.00928	262.52734	-1536.1301	287.03418	70.701706	-1434.7991	309.80167	53.866867	-1360.0928	163.84541	40.007164	-1473.8612
174	0.865	280.05872	874.12299	-1201.9591	137.11487	779.59827	-1196.2202	304.68045	798.27832	-1351.8615	293.54285	449.85522	-1075.6941	278.33237	472.2724	-1335.2333	457.13657	515.51086	-1159.3698	455.40695	515.21893	-1232.46	200.98227	413.26709	-913.284	96.091118	347.79126	-857.60327	206.01622	178.60231	-901.17352	299.8775	65.280746	-968.74823	319.42825	55.239391	-1028.2697	163.43933	38.967339	-932.42261	327.96796	457.31778	-1412.545	94.840157	334.91571	-1544.3217	130.71542	262.40799	-1536.0052	286.99631	70.697105	-1434.7216	309.8049	54.318996	-1359.6226	163.82045	39.993713	-1473.8375
175	0.87	279.9053	870.2077	-1201.8142	137.03085	775.52472	-1195.9749	304.56851	794.20868	-1351.7415	295.96277	446.0502	-1076.3599	278.37119	468.89969	-1334.9927	457.38312	511.45929	-1159.175	455.61456	511.11722	-1232.3206	201.73325	412.21368	-913.43665	96.416595	347.76956	-857.40851	206.10286	178.54019	-901.08868	299.82187	65.266289	-968.71997	319.44437	55.279163	-1028.3336	163.42485	38.979275	-932.3559	328.28061	454.8931	-1412.0952	94.514984	334.70261	-1544.2114	130.35849	262.34302	-1535.8767	286.90332	70.761887	-1434.6479	309.78763	53.850544	-1360.0599	163.79823	39.966438	-1473.7606
176	0.875	279.77939	866.24048	-1201.7142	137.00656	771.51044	-1195.9066	304.56982	790.27606	-1351.6316	296.20163	443.13904	-1076.2925	278.39047	465.60318	-1334.7701	457.61981	507.48618	-1158.9413	455.81989	507.13043	-1232.2313	202.52725	411.13821	-913.58081	96.793953	347.69534	-857.12653	206.15428	178.47165	-900.96564	300.21198	65.485329	-968.75531	319.44064	55.354168	-1028.3845	163.44058	39.016171	-932.3175	328.55655	452.53253	-1411.6968	94.196861	334.62357	-1544.1484	130.04933	262.31122	-1535.7728	286.82794	70.878952	-1434.5796	309.68155	53.88694	-1359.8708	163.75798	40.030403	-1473.7308
177	0.88	279.67007	862.38	-1201.6008	136.75476	767.66449	-1195.5685	304.55789	786.44818	-1351.5138	295.03818	439.36575	-1075.6378	278.49216	462.2948	-1334.582	457.87454	503.50351	-1158.8123	456.03503	503.14337	-1232.1135	203.29875	409.99069	-913.60663	97.141953	347.60071	-856.79095	206.2343	178.38144	-900.82172	299.81308	65.192322	-968.60565	319.58154	55.488956	-1028.5591	163.46233	39.002911	-932.28949	328.91998	450.2312	-1411.3821	93.920425	334.38043	-1544.0677	129.76799	262.24615	-1535.6632	286.76089	70.90744	-1434.5142	309.63315	53.859722	-1359.7688	163.73856	40.002594	-1473.6526
178	0.885	279.54037	858.54236	-1201.5049	136.78223	763.82117	-1195.7218	304.45932	782.57739	-1351.3616	296.18158	437.87622	-1075.8611	278.60214	458.89014	-1334.3612	458.17133	499.58258	-1158.9033	456.29877	499.26035	-1232.0792	204.09241	408.97549	-913.67352	97.557709	347.59805	-856.50323	206.31763	178.33804	-900.6001	299.86374	65.134201	-968.62921	319.56537	55.404514	-1028.5479	163.45001	38.961765	-932.28278	329.37433	447.93076	-1411.099	93.683762	334.11002	-1543.9946	129.53217	262.12363	-1535.5647	286.72311	70.868034	-1434.4634	309.66376	54.154804	-1359.3477	163.70541	39.91396	-1473.5989
179	0.89	279.41342	854.81732	-1201.4192	136.77032	759.76355	-1195.4658	304.34991	778.80554	-1351.1663	296.02835	435.32297	-1075.4203	278.70251	455.62393	-1334.1689	458.44785	495.7327	-1159.0118	456.57849	495.40891	-1232.041	204.94714	408.01526	-913.71027	98.012932	347.65768	-856.19232	206.41426	178.36127	-900.37762	299.94806	65.108665	-968.68414	320.37314	55.817966	-1028.8999	163.44882	38.909813	-932.31659	329.80249	445.58426	-1410.7172	93.472755	333.84769	-1543.9	129.3018	261.95496	-1535.4806	286.65546	70.823357	-1434.3925	309.55463	53.848419	-1359.7173	163.68475	39.850933	-1473.5591
180	0.895	279.25375	851.24573	-1201.2471	137.18895	756.66174	-1196.9965	304.27533	775.20306	-1351.0415				278.75299	452.48178	-1333.9559	458.73096	492.04144	-1158.9183	456.86032	491.69403	-1232.0347	206.09924	406.76727	-913.60669	98.468994	347.6449	-855.79584	206.56615	178.3925	-900.2345	299.94397	65.060143	-968.65747	319.4086	55.2314	-1028.4316	163.46445	38.936859	-932.31165	330.20676	443.13171	-1410.2356	93.282936	333.64963	-1543.8237	129.06934	261.89233	-1535.4025	286.59662	70.791817	-1434.3015	309.53021	54.285625	-1359.1672	163.60094	39.834148	-1473.4683
181	0.9	279.09134	847.77063	-1201.1379	137.15448	752.65381	-1196.3531	304.11102	771.64392	-1350.8727				278.94995	449.43652	-1333.8225	459.05142	488.42181	-1158.8361	457.15463	487.98944	-1232.0193	206.86107	405.81049	-913.50787	98.945114	347.64713	-855.36401	206.70483	178.29391	-900.09387	299.94147	65.03688	-968.59137	319.63229	55.530876	-1028.6737	163.47534	38.967701	-932.23761	330.64893	440.75229	-1409.8242	93.087509	333.50809	-1543.7529	128.83261	261.90289	-1535.3345	286.50333	70.901077	-1434.1919	309.4165	54.260555	-1359.0756	163.55482	39.894367	-1473.4218
182	0.905	278.88983	844.32684	-1200.9902	136.47218	749.22253	-1195.4205	304.03525	768.25049	-1350.8021				279.0123	446.57629	-1333.6603	459.38361	484.85934	-1158.7108	457.38351	484.21216	-1231.9545	207.72131	404.54398	-913.79333	99.425056	347.67334	-854.97668	206.85458	178.23796	-899.95367	299.95804	64.990364	-968.5249	319.64517	55.610981	-1028.7153	163.47255	39.02293	-932.16315	331.07986	438.31723	-1409.3673	92.933708	333.37131	-1543.6895	128.64143	261.85364	-1535.2604	286.45941	70.991287	-1434.1228	309.38297	53.98222	-1359.369	163.52904	39.913155	-1473.3406
